HIERARCHY
ROOT Hips
{
	OFFSET 0.000000 0.000000 0.000000 
	CHANNELS 6 Xposition Yposition Zposition Zrotation Yrotation Xrotation
	JOINT LeftUpLeg
	{
		OFFSET 1.363060 -1.794630 0.839290 
		CHANNELS 3 Zrotation Yrotation Xrotation
		JOINT LeftLeg
		{
			OFFSET 2.448110 -6.726130 0.000000 
			CHANNELS 3 Zrotation Yrotation Xrotation
			JOINT LeftFoot
			{
				OFFSET 2.562200 -7.039590 0.000000 
				CHANNELS 3 Zrotation Yrotation Xrotation
				JOINT LeftToeBase
				{
					OFFSET 0.157640 -0.433110 2.322550 
					CHANNELS 3 Zrotation Yrotation Xrotation
					End Site
					{
						OFFSET 0.000000 0.000000 0.000000 
					}
				}
			}
		}
	}
	JOINT RightUpLeg
	{
		OFFSET -1.305520 -1.794630 0.839290 
		CHANNELS 3 Zrotation Yrotation Xrotation
		JOINT RightLeg
		{
			OFFSET -2.542530 -6.985550 0.000000 
			CHANNELS 3 Zrotation Yrotation Xrotation
			JOINT RightFoot
			{
				OFFSET -2.568260 -7.056230 0.000000 
				CHANNELS 3 Zrotation Yrotation Xrotation
				JOINT RightToeBase
				{
					OFFSET -0.164730 -0.452590 2.363150 
					CHANNELS 3 Zrotation Yrotation Xrotation
					End Site
					{
						OFFSET 0.000000 0.000000 0.000000 
					}
				}
			}
		}
	}
	JOINT Spine
	{
		OFFSET 0.028270 2.035590 -0.193380 
		CHANNELS 3 Zrotation Yrotation Xrotation
		JOINT Spine1
		{
			OFFSET 0.056720 2.048850 -0.042750 
			CHANNELS 3 Zrotation Yrotation Xrotation
			JOINT Neck1
			{
				OFFSET -0.054170 1.746240 0.172020 
				CHANNELS 3 Zrotation Yrotation Xrotation
				JOINT Head
				{
					OFFSET 0.104070 1.761360 -0.123970 
					CHANNELS 3 Zrotation Yrotation Xrotation
					End Site
					{
						OFFSET 0.000000 0.000000 0.000000 
					}
				}
			}
			JOINT LeftArm
			{
				OFFSET 3.362410 1.200890 -0.311210 
				CHANNELS 3 Zrotation Yrotation Xrotation
				JOINT LeftForeArm
				{
					OFFSET 4.983000 -0.000000 -0.000000 
					CHANNELS 3 Zrotation Yrotation Xrotation
					JOINT LeftHand
					{
						OFFSET 3.483560 -0.000000 -0.000000 
						CHANNELS 3 Zrotation Yrotation Xrotation
						JOINT LeftHandIndex1
						{
							OFFSET 0.715260 -0.000000 -0.000000 
							CHANNELS 3 Zrotation Yrotation Xrotation
							End Site
							{
								OFFSET 0.000000 0.000000 0.000000 
							}
						}
					}
				}
			}
			JOINT RightArm
			{
				OFFSET -3.136600 1.374050 -0.404650 
				CHANNELS 3 Zrotation Yrotation Xrotation
				JOINT RightForeArm
				{
					OFFSET -5.241900 -0.000000 -0.000000 
					CHANNELS 3 Zrotation Yrotation Xrotation
					JOINT RightHand
					{
						OFFSET -3.444170 -0.000000 -0.000000 
						CHANNELS 3 Zrotation Yrotation Xrotation
						JOINT RightHandIndex1
						{
							OFFSET -0.622530 -0.000000 -0.000000 
							CHANNELS 3 Zrotation Yrotation Xrotation
							End Site
							{
								OFFSET 0.000000 0.000000 0.000000 
							}
						}
					}
				}
			}
		}
	}
}
MOTION
Frames: 16
Frame Time: 0.041667
-4.333385 17.480983 42.688184 -110.518686 -84.443730 121.403958 -9.347580 3.337148 -21.747935 -0.703970 10.626784 26.714820 4.541533 -8.079360 6.721568 0.286200 -3.440400 -9.507300 21.565144 -8.396695 -21.591656 0.797630 -10.436473 25.346285 -6.270988 18.430675 5.057183 -0.086400 1.895500 -5.217000 0.697602 2.905804 -3.904479 1.091262 1.192341 -8.074436 10.338940 -24.064609 5.425826 22.243600 -12.070900 3.752300 -78.707814 11.990061 43.338782 15.637192 -22.251320 -4.022513 -0.201086 -0.020508 -35.241340 -7.125000 0.000000 0.000000 76.305313 -7.688094 38.050580 -9.856604 19.929398 -2.510946 -0.451128 0.384607 26.828246 7.125000 0.000000 0.000000 
-4.332610 17.479323 42.689070 -110.381852 -84.447912 121.269658 -9.347793 3.288825 -21.740993 -0.697905 10.639267 26.742606 4.521101 -8.017780 6.663629 0.296200 -3.499700 -9.673200 21.568700 -8.402214 -21.599193 0.796100 -10.435779 25.339288 -6.271130 18.403352 4.996623 -0.094200 1.978900 -5.447400 0.699146 2.867789 -3.908546 1.077204 1.170645 -8.122513 10.349654 -24.109127 5.395731 22.244600 -12.085000 3.738600 -78.668708 11.960301 43.031751 15.497445 -22.104849 -3.970632 -0.152036 -0.004829 -34.509440 -7.125000 0.000000 0.000000 76.260922 -7.711902 38.364119 -9.916684 20.001919 -2.526602 -0.449475 0.389197 26.558518 7.125000 0.000000 0.000000 
-4.331503 17.480098 42.686966 -109.352153 -84.355964 120.211821 -9.214927 3.238349 -21.708581 -0.681383 10.642225 26.777180 4.519586 -7.996754 6.661161 0.297000 -3.504500 -9.686700 21.641629 -7.985811 -21.388144 0.824189 -10.437398 25.295993 -6.194772 17.966998 5.053369 -0.084500 1.875300 -5.161300 0.761158 2.700255 -3.910880 1.260478 1.115131 -8.163301 10.362993 -24.074936 5.387261 22.320500 -12.064300 3.771000 -78.905667 11.927730 42.498592 15.368509 -21.956903 -3.924529 -0.120935 0.021907 -33.931810 -7.125000 0.000000 0.000000 76.086859 -7.665424 38.499378 -9.908020 19.985011 -2.524174 -0.454623 0.389551 26.698135 7.125000 0.000000 0.000000 
-4.330397 17.478216 42.688737 -109.516986 -84.369968 120.392461 -9.231755 3.164641 -21.713223 -0.677595 10.659890 26.812612 4.497762 -7.939185 6.633055 0.292500 -3.478000 -9.612400 21.606450 -7.888415 -21.359123 0.825748 -10.432918 25.274987 -6.178630 17.810151 4.957177 -0.098700 2.025600 -5.576300 0.737005 2.745542 -3.913940 1.185589 1.125879 -8.228005 10.430538 -24.273025 5.271275 22.366100 -12.133100 3.738300 -78.743949 11.941288 42.748684 15.376164 -21.970817 -3.926195 -0.133099 0.019307 -34.109933 -7.125000 0.000000 0.000000 76.211334 -7.668113 38.277855 -9.906164 19.977880 -2.524234 -0.452276 0.385929 26.770461 7.125000 0.000000 0.000000 
-4.329400 17.477441 42.689180 -109.226030 -84.344540 120.104073 -9.194563 3.103322 -21.709885 -0.668459 10.672964 26.850217 4.483694 -7.896087 6.611994 0.290100 -3.463500 -9.571900 21.617163 -7.721054 -21.285787 0.837092 -10.427486 25.240891 -6.147890 17.612587 4.935176 -0.102600 2.065500 -5.686700 0.739808 2.709068 -3.918001 1.171521 1.104488 -8.284846 10.470701 -24.374954 5.201785 22.403800 -12.165400 3.727300 -78.696795 11.947511 42.745151 15.355911 -21.949442 -3.918553 -0.136643 0.021568 -34.116589 -7.125000 0.000000 0.000000 76.238019 -7.654137 38.216023 -9.906783 19.974850 -2.525526 -0.454961 0.384041 26.833855 7.125000 0.000000 0.000000 
-4.328293 17.476666 42.689955 -109.038622 -84.328004 119.925061 -9.166908 3.028968 -21.704826 -0.661970 10.685229 26.880879 4.461601 -7.829070 6.590992 0.288300 -3.452800 -9.542100 21.610152 -7.533030 -21.216677 0.845628 -10.427203 25.222740 -6.115450 17.404068 4.908684 -0.106200 2.101100 -5.785100 0.741621 2.673982 -3.922487 1.162411 1.084820 -8.341533 10.513607 -24.484380 5.127490 22.441400 -12.199200 3.717400 -78.652882 11.956328 42.795786 15.358289 -21.951366 -3.918503 -0.150539 0.020107 -34.260195 -7.125000 0.000000 0.000000 76.263345 -7.640034 38.143798 -9.909103 19.973556 -2.527362 -0.457055 0.382459 26.893305 7.125000 0.000000 0.000000 
-4.327297 17.476002 42.690619 -108.879291 -84.315293 119.775112 -9.142970 2.951390 -21.698082 -0.656534 10.696724 26.908017 4.436133 -7.751790 6.566900 0.288500 -3.454100 -9.545600 21.593926 -7.318027 -21.135162 0.854872 -10.426345 25.202029 -6.077537 17.163853 4.879024 -0.110400 2.142200 -5.898900 0.741798 2.642461 -3.926640 1.153926 1.067278 -8.397077 10.560182 -24.594044 5.049975 22.480200 -12.232100 3.703600 -78.597786 11.962801 42.884744 15.369675 -21.963321 -3.921510 -0.169137 0.016479 -34.465839 -7.125000 0.000000 0.000000 76.294334 -7.628674 38.064564 -9.915699 19.977269 -2.530746 -0.459377 0.381103 26.932508 7.125000 0.000000 0.000000 
-4.326190 17.475338 42.691062 -108.767037 -84.299400 119.671067 -9.116108 2.873128 -21.687904 -0.652091 10.705950 26.927911 4.404692 -7.654261 6.538803 0.292500 -3.477700 -9.611700 21.572441 -7.040866 -21.030956 0.864442 -10.429418 25.187332 -6.027683 16.857881 4.840233 -0.115000 2.186700 -6.021900 0.745362 2.607484 -3.930525 1.163484 1.051123 -8.454166 10.603191 -24.696646 4.970995 22.510300 -12.258800 3.681000 -78.555198 11.956481 42.929780 15.359684 -21.952405 -3.916654 -0.181724 0.016151 -34.575247 -7.125000 0.000000 0.000000 76.309052 -7.624391 38.019961 -9.932317 19.993126 -2.537306 -0.461228 0.380831 26.929641 7.125000 0.000000 0.000000 
-4.325083 17.474785 42.691948 -108.777925 -84.297433 119.693142 -9.106326 2.790845 -21.676380 -0.649967 10.714920 26.941868 4.366777 -7.538453 6.502057 0.299800 -3.520400 -9.731100 21.528503 -6.739536 -20.920662 0.872108 -10.434651 25.179910 -5.972746 16.522632 4.790957 -0.121100 2.243500 -6.179200 0.749701 2.573627 -3.933840 1.191420 1.038959 -8.510637 10.647908 -24.797130 4.889070 22.544600 -12.282900 3.653300 -78.521360 11.939051 42.963592 15.337466 -21.928570 -3.907007 -0.191076 0.017994 -34.635281 -7.125000 0.000000 0.000000 76.307351 -7.627415 38.007351 -9.958748 20.021019 -2.546407 -0.461718 0.381785 26.883442 7.125000 0.000000 0.000000 
-4.323866 17.474120 42.693608 -108.943070 -84.309447 119.875037 -9.115831 2.709320 -21.668699 -0.650899 10.723067 26.948668 4.324185 -7.410812 6.462377 0.308300 -3.569900 -9.869600 21.462556 -6.432310 -20.817949 0.876971 -10.442287 25.182518 -5.916434 16.182783 4.735148 -0.128300 2.308700 -6.359700 0.753281 2.544649 -3.936807 1.227834 1.031120 -8.566818 10.693749 -24.911781 4.801303 22.576400 -12.311300 3.622300 -78.494660 11.908720 42.973367 15.297930 -21.886033 -3.890979 -0.195000 0.023135 -34.613559 -7.125000 0.000000 0.000000 76.287061 -7.640002 38.051018 -9.999783 20.067485 -2.559714 -0.460931 0.384370 26.767647 7.125000 0.000000 0.000000 
-4.322869 17.473567 42.695268 -109.178162 -84.322307 120.126753 -9.129667 2.636486 -21.662994 -0.653061 10.729398 26.950076 4.282740 -7.286722 6.427262 0.316300 -3.615300 -9.996700 21.391434 -6.099496 -20.708474 0.880456 -10.453369 25.192724 -5.852858 15.811243 4.667229 -0.136900 2.384900 -6.570600 0.755273 2.519614 -3.939758 1.260373 1.024981 -8.623776 10.742388 -25.039520 4.712402 22.609200 -12.346800 3.595600 -78.457807 11.873661 42.980869 15.254421 -21.839915 -3.873573 -0.197407 0.028661 -34.575964 -7.125000 0.000000 0.000000 76.256749 -7.664487 38.156949 -10.055811 20.133707 -2.577441 -0.459218 0.388615 26.585243 7.125000 0.000000 0.000000 
-4.322205 17.473124 42.697482 -109.555318 -84.348278 120.527356 -9.161426 2.567066 -21.661822 -0.657779 10.735248 26.946516 4.240487 -7.163389 6.396867 0.322900 -3.652300 -10.100400 21.301099 -5.769008 -20.606988 0.881353 -10.466030 25.210546 -5.788919 15.443424 4.594557 -0.146700 2.468200 -6.801500 0.756170 2.495814 -3.942390 1.298812 1.021198 -8.675827 10.794743 -25.182520 4.623533 22.644700 -12.390400 3.578900 -78.429488 11.831430 42.978213 15.211341 -21.793505 -3.856380 -0.200560 0.034222 -34.540381 -7.125000 0.000000 0.000000 76.212307 -7.693055 38.303787 -10.120704 20.211234 -2.597597 -0.456537 0.393603 26.364417 7.125000 0.000000 0.000000 
-4.321984 17.472681 42.699475 -109.910270 -84.368103 120.906784 -9.190275 2.518291 -21.667361 -0.662058 10.739534 26.942585 4.209359 -7.073131 6.377268 0.325900 -3.669200 -10.147800 21.216475 -5.420910 -20.496912 0.882288 -10.479794 25.229219 -5.717219 15.048171 4.516336 -0.157100 2.553500 -7.038100 0.753666 2.468880 -3.945552 1.312136 1.011759 -8.725132 10.850438 -25.327013 4.541915 22.682400 -12.439500 3.576400 -78.374333 11.790830 42.955589 15.168174 -21.747724 -3.839958 -0.201821 0.039351 -34.484972 -7.125000 0.000000 0.000000 76.183477 -7.717579 38.438748 -10.182922 20.286915 -2.618036 -0.456745 0.398198 26.162999 7.125000 0.000000 0.000000 
-4.321873 17.472239 42.701688 -110.431390 -84.396260 121.453814 -9.233058 2.476068 -21.678978 -0.666960 10.745280 26.939405 4.177875 -6.984022 6.354616 0.328100 -3.681600 -10.182600 21.115496 -5.042798 -20.376970 0.883262 -10.492911 25.246306 -5.636144 14.613738 4.431298 -0.169600 2.653200 -7.314700 0.749759 2.441949 -3.949098 1.328118 1.003649 -8.770482 10.907891 -25.473993 4.465585 22.720400 -12.492100 3.586200 -78.325936 11.749065 42.916981 15.129098 -21.705596 -3.825184 -0.204524 0.043961 -34.440905 -7.125000 0.000000 0.000000 76.149810 -7.739631 38.571358 -10.243775 20.361205 -2.638492 -0.457750 0.402543 25.973961 7.125000 0.000000 0.000000 
-4.321984 17.471796 42.703681 -110.952204 -84.414671 121.998879 -9.268829 2.446123 -21.692951 -0.669755 10.751755 26.941696 4.151556 -6.909892 6.334266 0.329200 -3.687700 -10.199800 21.023873 -4.624985 -20.233658 0.885823 -10.505755 25.257472 -5.539190 14.118630 4.335618 -0.184700 2.768200 -7.634200 0.745890 2.417269 -3.952259 1.346570 0.997289 -8.813271 10.972136 -25.617084 4.393204 22.770500 -12.546200 3.605400 -78.271179 11.709792 42.892114 15.100663 -21.675344 -3.814554 -0.209295 0.047019 -34.426372 -7.125000 0.000000 0.000000 76.127613 -7.753289 38.640942 -10.291125 20.418760 -2.655630 -0.460157 0.405068 25.849629 7.125000 0.000000 0.000000 
-4.322095 17.471242 42.705341 -111.524622 -84.420850 122.590906 -9.297793 2.435528 -21.711273 -0.670014 10.759048 26.949603 4.129356 -6.846500 6.312531 0.330700 -3.695700 -10.222200 20.944293 -4.174169 -20.072522 0.889263 -10.519311 25.266004 -5.428150 13.576637 4.228704 -0.202600 2.898300 -7.995700 0.742716 2.394227 -3.955300 1.366391 0.992182 -8.858570 11.035211 -25.749867 4.324122 22.816800 -12.596000 3.623000 -78.213952 11.666744 42.831722 15.062160 -21.634710 -3.800780 -0.207957 0.051926 -34.330116 -7.125000 0.000000 0.000000 76.114774 -7.761716 38.667739 -10.329341 20.463863 -2.670188 -0.463160 0.406184 25.778568 7.125000 0.000000 0.000000 
